<?xml version="1.0" encoding="UTF-8"?> <svg xmlns="http://www.w3.org/2000/svg" width="121" height="42" viewBox="0 0 121 42" fill="none"><path d="M14.082 27.062C14.6487 28.0367 14.932 28.9773 14.932 29.884C14.932 30.088 14.9093 30.2693 14.864 30.428C14.8413 30.6093 14.8073 30.7907 14.762 30.972C14.3767 30.9267 13.9687 30.8927 13.538 30.87C13.13 30.8473 12.6993 30.836 12.246 30.836C11.702 30.836 11.1467 30.8473 10.58 30.87C10.036 30.9153 9.424 30.972 8.744 31.04C8.064 31.108 7.30467 31.1987 6.466 31.312C5.62733 31.4253 4.65267 31.5727 3.542 31.754C3.02067 31.5727 2.49933 31.21 1.978 30.666C1.45667 30.1447 0.969333 29.51 0.516 28.762C0.742667 28.2633 1.026 27.6513 1.366 26.926C1.706 26.178 2.10267 25.2827 2.556 24.24C3.00933 23.1747 3.508 21.9393 4.052 20.534C4.61867 19.106 5.21933 17.4627 5.854 15.604C6.262 14.38 6.61333 13.3033 6.908 12.374C7.20267 11.4447 7.46333 10.5493 7.69 9.688C7.93933 8.804 8.17733 7.886 8.404 6.934C8.63067 5.982 8.88 4.88267 9.152 3.636C10.0587 3.81733 10.8407 4.15733 11.498 4.656C12.178 5.132 12.824 5.82333 13.436 6.73C13.2547 7.02467 13.0167 7.50067 12.722 8.158C12.4273 8.81533 12.076 9.62 11.668 10.572C11.2827 11.5013 10.852 12.5667 10.376 13.768C9.9 14.9467 9.40133 16.216 8.88 17.576C8.38133 18.9133 7.894 20.1713 7.418 21.35C6.942 22.5287 6.51133 23.594 6.126 24.546C5.76333 25.498 5.46867 26.314 5.242 26.994C5.01533 27.674 4.902 28.184 4.902 28.524C5.26467 28.5013 5.59333 28.4787 5.888 28.456C6.18267 28.4333 6.48867 28.3993 6.806 28.354C7.12333 28.286 7.46333 28.218 7.826 28.15C8.21133 28.0593 8.66467 27.946 9.186 27.81C9.63933 27.6967 10.0587 27.606 10.444 27.538C10.8293 27.4473 11.2033 27.3793 11.566 27.334C11.9513 27.266 12.3367 27.2207 12.722 27.198C13.13 27.1527 13.5833 27.1073 14.082 27.062ZM18.2975 26.722C18.2975 26.518 18.3088 26.2687 18.3315 25.974C18.3768 25.6567 18.4448 25.2487 18.5355 24.75C18.6261 24.2287 18.7395 23.6053 18.8755 22.88C19.0341 22.1547 19.2268 21.282 19.4535 20.262C19.4988 20.0353 19.6008 19.6727 19.7595 19.174C19.9181 18.6753 20.1221 18.154 20.3715 17.61C20.6435 17.0433 20.9608 16.4993 21.3235 15.978C21.7088 15.4567 22.1621 15.0713 22.6835 14.822C23.0688 14.9127 23.5788 15.1507 24.2135 15.536C24.8481 15.8987 25.3921 16.4087 25.8455 17.066C25.3241 17.6553 24.8821 18.2447 24.5195 18.834C24.1795 19.4233 23.8621 20.0353 23.5675 20.67C23.2955 21.3047 23.0348 21.962 22.7855 22.642C22.5588 23.322 22.2981 24.036 22.0035 24.784C21.7541 25.4187 21.5275 26.076 21.3235 26.756C21.1195 27.4133 21.0061 27.9913 20.9835 28.49C20.9835 28.898 20.9721 29.1813 20.9495 29.34C20.9495 29.5213 20.8928 29.612 20.7795 29.612C20.6888 29.612 20.5075 29.5553 20.2355 29.442C19.9635 29.3287 19.6801 29.1587 19.3855 28.932C19.1135 28.6827 18.8641 28.3767 18.6375 28.014C18.4108 27.6513 18.2975 27.2207 18.2975 26.722ZM24.7915 11.966C24.7915 11.83 24.8255 11.626 24.8935 11.354C24.7801 11.2407 24.6781 11.0707 24.5875 10.844C24.5195 10.6173 24.4855 10.4133 24.4855 10.232C24.4855 10.028 24.5081 9.756 24.5535 9.416C24.6215 9.05333 24.7008 8.668 24.7915 8.26C24.8821 7.852 24.9955 7.43267 25.1315 7.002C25.2675 6.54867 25.4035 6.14067 25.5395 5.778C25.8115 5.778 26.1401 5.85733 26.5255 6.016C26.9335 6.152 27.3415 6.34467 27.7495 6.594C28.1575 6.82067 28.5315 7.08133 28.8715 7.376C29.2115 7.648 29.4721 7.90867 29.6535 8.158C29.4041 8.40733 29.0755 8.75867 28.6675 9.212C28.2595 9.64267 27.8628 10.1073 27.4775 10.606C27.0921 11.082 26.7408 11.5353 26.4235 11.966C26.1061 12.3967 25.9021 12.7027 25.8115 12.884C25.5395 12.8387 25.3015 12.7253 25.0975 12.544C24.8935 12.34 24.7915 12.1473 24.7915 11.966ZM20.7906 39.132C20.7906 38.996 20.836 38.8713 20.9266 38.758C21.0173 38.6447 21.1193 38.5313 21.2326 38.418C21.5046 38.6673 21.7426 38.86 21.9466 38.996C22.128 39.132 22.3093 39.2453 22.4906 39.336C22.6493 39.4267 22.8193 39.4833 23.0006 39.506C23.182 39.5287 23.3973 39.54 23.6466 39.54C24.8253 39.54 25.9473 39.2227 27.0126 38.588C28.078 37.976 29.0753 37.0807 30.0046 35.902C30.9566 34.7233 31.818 33.284 32.5886 31.584C33.3593 29.884 34.0393 27.9573 34.6286 25.804C34.3566 26.076 34.0166 26.382 33.6086 26.722C33.2233 27.0393 32.8153 27.3453 32.3846 27.64C31.954 27.9347 31.5233 28.2067 31.0926 28.456C30.6846 28.7053 30.3333 28.8867 30.0386 29C29.6533 28.932 29.2906 28.7733 28.9506 28.524C28.6333 28.252 28.35 27.9233 28.1006 27.538C27.8513 27.1527 27.6586 26.722 27.5226 26.246C27.3866 25.7473 27.3186 25.226 27.3186 24.682C27.3186 23.798 27.4773 22.8913 27.7946 21.962C28.1346 21.0327 28.5766 20.126 29.1206 19.242C29.6646 18.3353 30.2993 17.4853 31.0246 16.692C31.7726 15.8987 32.5546 15.2073 33.3706 14.618C34.2093 14.0287 35.048 13.564 35.8866 13.224C36.748 12.8613 37.5866 12.68 38.4026 12.68C39.196 12.68 39.7853 12.85 40.1706 13.19C40.5786 13.5073 40.8733 14.0627 41.0546 14.856C40.8053 14.72 40.488 14.652 40.1026 14.652C39.5586 14.652 38.924 14.8673 38.1986 15.298C37.496 15.7287 36.7706 16.2953 36.0226 16.998C35.2973 17.678 34.572 18.4713 33.8466 19.378C33.1213 20.262 32.4753 21.1687 31.9086 22.098C31.3646 23.0273 30.9113 23.934 30.5486 24.818C30.2086 25.702 30.0386 26.4953 30.0386 27.198C30.0386 27.3567 30.05 27.4587 30.0726 27.504C30.0953 27.5267 30.1293 27.538 30.1746 27.538C30.3786 27.538 30.6506 27.4247 30.9906 27.198C31.3533 26.9713 31.75 26.688 32.1806 26.348C32.634 25.9853 33.0986 25.5773 33.5746 25.124C34.0506 24.648 34.504 24.172 34.9346 23.696C35.9093 22.608 36.7933 21.3953 37.5866 20.058C38.4026 18.698 39.0486 17.3833 39.5246 16.114C40.1366 16.1593 40.6806 16.2613 41.1566 16.42C41.6326 16.5787 41.9613 16.7487 42.1426 16.93C41.372 18.698 40.7486 20.1827 40.2726 21.384C39.8193 22.5853 39.4226 23.6507 39.0826 24.58C38.4706 26.212 37.8926 27.6967 37.3486 29.034C36.8273 30.394 36.2833 31.6407 35.7166 32.774C35.1726 33.93 34.572 34.9953 33.9146 35.97C33.28 36.9673 32.5546 37.9193 31.7386 38.826C31.3533 39.2567 30.9113 39.6307 30.4126 39.948C29.9366 40.288 29.438 40.5713 28.9166 40.798C28.418 41.0247 27.9193 41.1947 27.4206 41.308C26.9446 41.4213 26.5026 41.478 26.0946 41.478C25.5506 41.478 24.9953 41.41 24.4286 41.274C23.862 41.1607 23.3406 40.9907 22.8646 40.764C22.366 40.56 21.9353 40.3107 21.5726 40.016C21.21 39.744 20.9493 39.4493 20.7906 39.132ZM44.2913 28.422C44.2913 27.6287 44.3706 26.6993 44.5293 25.634C44.6879 24.546 44.9146 23.39 45.2093 22.166C45.5266 20.942 45.8893 19.6613 46.2973 18.324C46.7279 16.9867 47.2039 15.6493 47.7253 14.312C48.1786 13.1107 48.6999 11.898 49.2893 10.674C49.9013 9.45 50.5586 8.24866 51.2613 7.07C51.9639 5.89133 52.6893 4.76933 53.4373 3.704C54.2079 2.63867 54.9786 1.664 55.7493 0.779999C56.1119 0.779999 56.4973 0.825332 56.9053 0.915999C57.3359 1.00667 57.7439 1.13133 58.1293 1.29C58.5373 1.426 58.8999 1.596 59.2173 1.8C59.5573 2.004 59.8293 2.208 60.0333 2.412C58.3333 4.15733 56.8033 5.92533 55.4433 7.716C54.0833 9.484 53.0066 11.15 52.2133 12.714C51.7826 13.5753 51.3859 14.38 51.0233 15.128C50.6833 15.876 50.3659 16.624 50.0713 17.372C49.7766 18.0973 49.5046 18.834 49.2553 19.582C49.0286 20.3073 48.8133 21.078 48.6093 21.894C52.9613 16.3407 56.1913 13.564 58.2993 13.564C58.8886 13.564 59.5233 13.7567 60.2033 14.142C60.8833 14.5273 61.4839 15.0487 62.0053 15.706C61.3026 16.4767 60.5773 17.406 59.8293 18.494C59.0813 19.582 58.3899 20.6813 57.7553 21.792C57.1433 22.88 56.6333 23.9 56.2253 24.852C55.8399 25.7813 55.6473 26.4727 55.6473 26.926C55.6473 27.1527 55.6813 27.3113 55.7493 27.402C55.8173 27.47 55.9646 27.504 56.1913 27.504C56.5313 27.504 56.8033 27.4587 57.0073 27.368C57.2113 27.2773 57.3359 27.232 57.3813 27.232C57.4946 27.4133 57.5626 27.538 57.5853 27.606C57.6079 27.674 57.6193 27.7307 57.6193 27.776C57.6193 27.8667 57.4833 28.0027 57.2113 28.184C56.9393 28.3427 56.6106 28.5127 56.2253 28.694C55.8626 28.8527 55.4999 29 55.1373 29.136C54.7746 29.272 54.5026 29.34 54.3213 29.34C54.0946 29.34 53.8679 29.272 53.6413 29.136C53.4146 29.0227 53.2106 28.864 53.0293 28.66C52.8706 28.456 52.7346 28.2293 52.6213 27.98C52.5306 27.7307 52.4853 27.47 52.4853 27.198C52.4853 26.858 52.5759 26.3593 52.7573 25.702C52.9613 25.022 53.2333 24.24 53.5733 23.356C53.9133 22.4493 54.3213 21.4633 54.7973 20.398C55.2733 19.3327 55.7833 18.2447 56.3273 17.134C56.3273 17.0433 56.2819 16.998 56.1913 16.998C56.1233 16.998 55.9419 17.0887 55.6473 17.27C55.3753 17.4513 55.1146 17.6327 54.8653 17.814C54.0493 18.426 53.2219 19.1853 52.3833 20.092C51.5673 20.976 50.7626 21.9507 49.9693 23.016C49.1986 24.0813 48.4619 25.2147 47.7593 26.416C47.0793 27.5947 46.4899 28.7847 45.9913 29.986C45.9233 30.1447 45.8213 30.292 45.6853 30.428C45.5493 30.564 45.4359 30.632 45.3453 30.632C45.2773 30.632 45.1753 30.5527 45.0393 30.394C44.9259 30.2353 44.8126 30.0313 44.6993 29.782C44.6086 29.5553 44.5179 29.3173 44.4273 29.068C44.3366 28.8187 44.2913 28.6033 44.2913 28.422ZM65.2557 15.978C65.1424 15.842 65.0404 15.5587 64.9497 15.128C64.8591 14.6747 64.8137 14.2893 64.8137 13.972C65.4031 14.0173 65.9697 14.0627 66.5137 14.108C67.0577 14.1307 67.5564 14.1533 68.0097 14.176C68.3497 13.496 68.7124 12.8273 69.0977 12.17C69.5057 11.49 69.8911 10.878 70.2537 10.334C70.6391 9.76733 70.9904 9.29133 71.3077 8.906C71.6477 8.52067 71.9084 8.27133 72.0897 8.158C72.3164 8.158 72.5997 8.20333 72.9397 8.294C73.3024 8.362 73.6651 8.464 74.0277 8.6C74.3904 8.71333 74.7191 8.838 75.0137 8.974C75.3084 9.11 75.5124 9.246 75.6257 9.382C74.9457 10.2433 74.3564 11.048 73.8577 11.796C73.3817 12.5213 72.8604 13.36 72.2937 14.312C72.7471 14.312 73.2004 14.3007 73.6537 14.278C74.1297 14.2553 74.6057 14.2213 75.0817 14.176C75.1951 14.2893 75.2857 14.4367 75.3537 14.618C75.4217 14.7767 75.4557 14.9467 75.4557 15.128C74.3451 15.536 72.9964 15.7627 71.4097 15.808C70.8431 16.896 70.3331 17.984 69.8797 19.072C69.4491 20.1373 69.0751 21.1687 68.7577 22.166C68.4631 23.1633 68.2251 24.104 68.0437 24.988C67.8851 25.872 67.8057 26.6653 67.8057 27.368C67.8057 28.3653 68.1797 28.9207 68.9277 29.034C69.6077 28.9433 70.2537 28.7733 70.8657 28.524C71.4777 28.2747 72.0217 27.9573 72.4977 27.572C72.6337 27.776 72.7131 27.946 72.7357 28.082C72.5997 28.286 72.3617 28.524 72.0217 28.796C71.7044 29.068 71.3531 29.3287 70.9677 29.578C70.5824 29.85 70.2084 30.0767 69.8457 30.258C69.4831 30.4393 69.2111 30.5413 69.0297 30.564C68.4631 30.5413 67.8964 30.4167 67.3297 30.19C66.7631 29.9633 66.2417 29.68 65.7657 29.34C65.3124 29 64.9384 28.626 64.6437 28.218C64.3491 27.7873 64.2017 27.368 64.2017 26.96C64.2017 26.416 64.2697 25.736 64.4057 24.92C64.5644 24.0813 64.7797 23.1747 65.0517 22.2C65.3237 21.2253 65.6411 20.2053 66.0037 19.14C66.3664 18.0747 66.7631 17.0207 67.1937 15.978H65.2557ZM76.5968 26.722C76.5968 26.518 76.6082 26.2687 76.6308 25.974C76.6762 25.6567 76.7442 25.2487 76.8348 24.75C76.9255 24.2287 77.0388 23.6053 77.1748 22.88C77.3335 22.1547 77.5262 21.282 77.7528 20.262C77.7982 20.0353 77.9002 19.6727 78.0588 19.174C78.2175 18.6753 78.4215 18.154 78.6708 17.61C78.9428 17.0433 79.2602 16.4993 79.6228 15.978C80.0082 15.4567 80.4615 15.0713 80.9828 14.822C81.3682 14.9127 81.8782 15.1507 82.5128 15.536C83.1475 15.8987 83.6915 16.4087 84.1448 17.066C83.6235 17.6553 83.1815 18.2447 82.8188 18.834C82.4788 19.4233 82.1615 20.0353 81.8668 20.67C81.5948 21.3047 81.3342 21.962 81.0848 22.642C80.8582 23.322 80.5975 24.036 80.3028 24.784C80.0535 25.4187 79.8268 26.076 79.6228 26.756C79.4188 27.4133 79.3055 27.9913 79.2828 28.49C79.2828 28.898 79.2715 29.1813 79.2488 29.34C79.2488 29.5213 79.1922 29.612 79.0788 29.612C78.9882 29.612 78.8068 29.5553 78.5348 29.442C78.2628 29.3287 77.9795 29.1587 77.6848 28.932C77.4128 28.6827 77.1635 28.3767 76.9368 28.014C76.7102 27.6513 76.5968 27.2207 76.5968 26.722ZM83.0908 11.966C83.0908 11.83 83.1248 11.626 83.1928 11.354C83.0795 11.2407 82.9775 11.0707 82.8868 10.844C82.8188 10.6173 82.7848 10.4133 82.7848 10.232C82.7848 10.028 82.8075 9.756 82.8528 9.416C82.9208 9.05333 83.0002 8.668 83.0908 8.26C83.1815 7.852 83.2948 7.43267 83.4308 7.002C83.5668 6.54867 83.7028 6.14067 83.8388 5.778C84.1108 5.778 84.4395 5.85733 84.8248 6.016C85.2328 6.152 85.6408 6.34467 86.0488 6.594C86.4568 6.82067 86.8308 7.08133 87.1708 7.376C87.5108 7.648 87.7715 7.90867 87.9528 8.158C87.7035 8.40733 87.3748 8.75867 86.9668 9.212C86.5588 9.64267 86.1622 10.1073 85.7768 10.606C85.3915 11.082 85.0402 11.5353 84.7228 11.966C84.4055 12.3967 84.2015 12.7027 84.1108 12.884C83.8388 12.8387 83.6008 12.7253 83.3968 12.544C83.1928 12.34 83.0908 12.1473 83.0908 11.966ZM91.466 12.51C92.0553 12.6913 92.6107 13.0993 93.132 13.734C93.6533 14.346 94.0387 15.026 94.288 15.774C94.0387 16.386 93.6533 17.1227 93.132 17.984C92.6107 18.8453 92.0893 19.7293 91.568 20.636C91.0467 21.52 90.5707 22.37 90.14 23.186C89.732 23.9793 89.494 24.6367 89.426 25.158C89.7887 24.7727 90.1853 24.3307 90.616 23.832C91.0693 23.3107 91.5 22.8007 91.908 22.302C92.3387 21.7807 92.7353 21.316 93.098 20.908C93.4607 20.4773 93.744 20.16 93.948 19.956C94.3787 19.5027 94.8887 18.9813 95.478 18.392C96.0673 17.78 96.6793 17.2133 97.314 16.692C97.9713 16.148 98.6287 15.6947 99.286 15.332C99.9433 14.9467 100.544 14.754 101.088 14.754C101.677 14.754 102.165 14.958 102.55 15.366C102.958 15.7513 103.275 16.1593 103.502 16.59C103.502 16.6353 103.411 16.7033 103.23 16.794C103.071 16.862 102.833 17.0773 102.516 17.44C102.199 17.848 101.836 18.4147 101.428 19.14C101.043 19.8427 100.657 20.6133 100.272 21.452C99.9093 22.268 99.6033 23.1067 99.354 23.968C99.1047 24.8293 98.98 25.6113 98.98 26.314C98.98 26.8807 99.048 27.2433 99.184 27.402C99.3427 27.5607 99.558 27.64 99.83 27.64C100.079 27.64 100.34 27.5833 100.612 27.47C100.884 27.3567 101.099 27.3 101.258 27.3C101.349 27.3453 101.417 27.4473 101.462 27.606C101.53 27.742 101.564 27.8667 101.564 27.98C101.383 28.1387 101.167 28.2973 100.918 28.456C100.669 28.6147 100.408 28.762 100.136 28.898C99.864 29.034 99.592 29.1473 99.32 29.238C99.0707 29.3287 98.844 29.374 98.64 29.374C97.9827 29.374 97.4387 29.272 97.008 29.068C96.6 28.8867 96.2713 28.6373 96.022 28.32C95.7953 28.0027 95.6367 27.6287 95.546 27.198C95.4553 26.7447 95.41 26.2687 95.41 25.77C95.41 25.498 95.4327 25.192 95.478 24.852C95.5233 24.512 95.614 24.1153 95.75 23.662C95.886 23.186 96.0787 22.6307 96.328 21.996C96.5773 21.3387 96.8947 20.5567 97.28 19.65C97.2347 19.65 96.9287 19.8087 96.362 20.126C95.7953 20.4433 95.1833 20.9307 94.526 21.588C93.4607 22.608 92.4973 23.6167 91.636 24.614C90.7973 25.6113 89.936 26.722 89.052 27.946C88.5533 28.6487 88.1113 29.238 87.726 29.714C87.3633 30.2127 87.046 30.5413 86.774 30.7C86.298 30.428 85.9467 30.0427 85.72 29.544C85.4933 29.068 85.3233 28.5693 85.21 28.048C85.21 27.6173 85.2667 27.0733 85.38 26.416C85.516 25.7587 85.686 25.0333 85.89 24.24C86.1167 23.424 86.3887 22.574 86.706 21.69C87.0233 20.806 87.3747 19.922 87.76 19.038C88.6213 17.0433 89.4033 15.4793 90.106 14.346C90.8313 13.2127 91.2847 12.6007 91.466 12.51ZM98.8113 39.132C98.8113 38.996 98.8567 38.8713 98.9473 38.758C99.038 38.6447 99.14 38.5313 99.2533 38.418C99.5253 38.6673 99.7633 38.86 99.9673 38.996C100.149 39.132 100.33 39.2453 100.511 39.336C100.67 39.4267 100.84 39.4833 101.021 39.506C101.203 39.5287 101.418 39.54 101.667 39.54C102.846 39.54 103.968 39.2227 105.033 38.588C106.099 37.976 107.096 37.0807 108.025 35.902C108.977 34.7233 109.839 33.284 110.609 31.584C111.38 29.884 112.06 27.9573 112.649 25.804C112.377 26.076 112.037 26.382 111.629 26.722C111.244 27.0393 110.836 27.3453 110.405 27.64C109.975 27.9347 109.544 28.2067 109.113 28.456C108.705 28.7053 108.354 28.8867 108.059 29C107.674 28.932 107.311 28.7733 106.971 28.524C106.654 28.252 106.371 27.9233 106.121 27.538C105.872 27.1527 105.679 26.722 105.543 26.246C105.407 25.7473 105.339 25.226 105.339 24.682C105.339 23.798 105.498 22.8913 105.815 21.962C106.155 21.0327 106.597 20.126 107.141 19.242C107.685 18.3353 108.32 17.4853 109.045 16.692C109.793 15.8987 110.575 15.2073 111.391 14.618C112.23 14.0287 113.069 13.564 113.907 13.224C114.769 12.8613 115.607 12.68 116.423 12.68C117.217 12.68 117.806 12.85 118.191 13.19C118.599 13.5073 118.894 14.0627 119.075 14.856C118.826 14.72 118.509 14.652 118.123 14.652C117.579 14.652 116.945 14.8673 116.219 15.298C115.517 15.7287 114.791 16.2953 114.043 16.998C113.318 17.678 112.593 18.4713 111.867 19.378C111.142 20.262 110.496 21.1687 109.929 22.098C109.385 23.0273 108.932 23.934 108.569 24.818C108.229 25.702 108.059 26.4953 108.059 27.198C108.059 27.3567 108.071 27.4587 108.093 27.504C108.116 27.5267 108.15 27.538 108.195 27.538C108.399 27.538 108.671 27.4247 109.011 27.198C109.374 26.9713 109.771 26.688 110.201 26.348C110.655 25.9853 111.119 25.5773 111.595 25.124C112.071 24.648 112.525 24.172 112.955 23.696C113.93 22.608 114.814 21.3953 115.607 20.058C116.423 18.698 117.069 17.3833 117.545 16.114C118.157 16.1593 118.701 16.2613 119.177 16.42C119.653 16.5787 119.982 16.7487 120.163 16.93C119.393 18.698 118.769 20.1827 118.293 21.384C117.84 22.5853 117.443 23.6507 117.103 24.58C116.491 26.212 115.913 27.6967 115.369 29.034C114.848 30.394 114.304 31.6407 113.737 32.774C113.193 33.93 112.593 34.9953 111.935 35.97C111.301 36.9673 110.575 37.9193 109.759 38.826C109.374 39.2567 108.932 39.6307 108.433 39.948C107.957 40.288 107.459 40.5713 106.937 40.798C106.439 41.0247 105.94 41.1947 105.441 41.308C104.965 41.4213 104.523 41.478 104.115 41.478C103.571 41.478 103.016 41.41 102.449 41.274C101.883 41.1607 101.361 40.9907 100.885 40.764C100.387 40.56 99.956 40.3107 99.5933 40.016C99.2307 39.744 98.97 39.4493 98.8113 39.132Z" fill="#FFA83E"></path></svg> 