<svg width="15" height="15" viewBox="0 0 15 15" fill="none" xmlns="http://www.w3.org/2000/svg">
<path d="M5.41853 7.31338C5.90476 8.30744 6.71055 9.10956 7.70681 9.59126C7.77971 9.6258 7.86034 9.64077 7.94077 9.63468C8.0212 9.6286 8.09866 9.60167 8.16553 9.55656L9.63246 8.57837C9.69734 8.53511 9.77198 8.50872 9.84964 8.50158C9.92729 8.49445 10.0055 8.5068 10.0772 8.53752L12.8215 9.71367C12.9148 9.75327 12.9926 9.8221 13.0433 9.90978C13.094 9.99746 13.1148 10.0992 13.1027 10.1998C13.0159 10.8786 12.6848 11.5024 12.1712 11.9546C11.6576 12.4067 10.9968 12.6562 10.3125 12.6562C8.19906 12.6562 6.17217 11.8167 4.67774 10.3222C3.18331 8.82781 2.34375 6.80093 2.34375 4.68748C2.34379 4.00321 2.59324 3.34241 3.0454 2.82881C3.49756 2.31522 4.12142 1.98405 4.80018 1.89731C4.90073 1.88514 5.00252 1.90598 5.0902 1.95669C5.17788 2.00739 5.24671 2.08523 5.28631 2.17845L6.46349 4.9252C6.49394 4.99625 6.50634 5.07372 6.4996 5.15073C6.49286 5.22773 6.46719 5.30187 6.42486 5.36655L5.45007 6.85598C5.4057 6.92298 5.37947 7.00035 5.37395 7.08052C5.36842 7.16069 5.38378 7.24092 5.41853 7.31338Z" fill="#FFA83E" fill-opacity="0.9" stroke="#FFA83E" stroke-opacity="0.9" stroke-width="0.5" stroke-linecap="round" stroke-linejoin="round"/>
</svg>
