<svg width="510" height="100" viewBox="0 0 510 100" fill="none" xmlns="http://www.w3.org/2000/svg">
<g filter="url(#filter0_f_20_86)">
<path d="M61.65 61.42C57.09 65.98 51.45 68.26 44.73 68.26C38.01 68.26 32.37 65.98 27.81 61.42C23.25 56.86 20.97 51.22 20.97 44.5C20.97 37.84 23.25 32.23 27.81 27.67C32.43 23.05 38.07 20.74 44.73 20.74C51.39 20.74 57.03 23.05 61.65 27.67C66.27 32.29 68.58 37.9 68.58 44.5C68.58 51.16 66.27 56.8 61.65 61.42ZM36 53.41C38.34 55.75 41.25 56.92 44.73 56.92C48.21 56.92 51.12 55.75 53.46 53.41C55.8 51.07 56.97 48.1 56.97 44.5C56.97 40.9 55.8 37.93 53.46 35.59C51.12 33.25 48.21 32.08 44.73 32.08C41.25 32.08 38.34 33.25 36 35.59C33.72 37.99 32.58 40.96 32.58 44.5C32.58 48.04 33.72 51.01 36 53.41ZM98.1675 68.26C91.3875 68.26 85.7175 65.98 81.1575 61.42C76.6575 56.86 74.4075 51.22 74.4075 44.5C74.4075 37.78 76.6575 32.14 81.1575 27.58C85.7175 23.02 91.3875 20.74 98.1675 20.74C102.548 20.74 106.538 21.79 110.138 23.89C113.738 25.99 116.468 28.81 118.328 32.35L108.338 38.2C107.438 36.34 106.058 34.87 104.198 33.79C102.398 32.71 100.358 32.17 98.0775 32.17C94.5975 32.17 91.7175 33.34 89.4375 35.68C87.1575 37.96 86.0175 40.9 86.0175 44.5C86.0175 47.98 87.1575 50.92 89.4375 53.32C91.7175 55.6 94.5975 56.74 98.0775 56.74C100.418 56.74 102.488 56.23 104.288 55.21C106.148 54.13 107.528 52.66 108.428 50.8L118.508 56.56C116.528 60.16 113.708 63.01 110.048 65.11C106.448 67.21 102.488 68.26 98.1675 68.26ZM157.399 43.96C161.599 46 163.699 49.42 163.699 54.22C163.699 58.06 162.379 61.15 159.739 63.49C157.099 65.83 153.409 67 148.669 67H124.999V22H146.869C151.549 22 155.209 23.17 157.849 25.51C160.489 27.79 161.809 30.85 161.809 34.69C161.809 38.65 160.339 41.74 157.399 43.96ZM145.789 31.54H135.889V39.64H145.789C149.089 39.64 150.739 38.29 150.739 35.59C150.739 32.89 149.089 31.54 145.789 31.54ZM135.889 57.19H147.319C150.679 57.19 152.359 55.75 152.359 52.87C152.359 51.61 151.909 50.62 151.009 49.9C150.109 49.18 148.879 48.82 147.319 48.82H135.889V57.19ZM214.706 49.27H180.776C182.276 54.91 186.506 57.73 193.466 57.73C197.906 57.73 201.266 56.23 203.546 53.23L212.906 58.63C208.466 65.05 201.926 68.26 193.286 68.26C185.846 68.26 179.876 66.01 175.376 61.51C170.876 57.01 168.626 51.34 168.626 44.5C168.626 37.78 170.846 32.14 175.286 27.58C179.666 23.02 185.366 20.74 192.386 20.74C199.046 20.74 204.476 23.02 208.676 27.58C212.996 32.14 215.156 37.78 215.156 44.5C215.156 45.76 215.006 47.35 214.706 49.27ZM180.596 40.27H203.546C202.886 37.33 201.536 35.08 199.496 33.52C197.516 31.96 195.146 31.18 192.386 31.18C189.266 31.18 186.686 31.99 184.646 33.61C182.606 35.17 181.256 37.39 180.596 40.27ZM286.261 22V56.11H292.201V79.06H280.861V67H223.261V22H234.871V56.11H248.911V22H260.521V56.11H274.651V22H286.261ZM341.532 49.27H307.602C309.102 54.91 313.332 57.73 320.292 57.73C324.732 57.73 328.092 56.23 330.372 53.23L339.732 58.63C335.292 65.05 328.752 68.26 320.112 68.26C312.672 68.26 306.702 66.01 302.202 61.51C297.702 57.01 295.452 51.34 295.452 44.5C295.452 37.78 297.672 32.14 302.112 27.58C306.492 23.02 312.192 20.74 319.212 20.74C325.872 20.74 331.302 23.02 335.502 27.58C339.822 32.14 341.982 37.78 341.982 44.5C341.982 45.76 341.832 47.35 341.532 49.27ZM307.422 40.27H330.372C329.712 37.33 328.362 35.08 326.322 33.52C324.342 31.96 321.972 31.18 319.212 31.18C316.092 31.18 313.512 31.99 311.472 33.61C309.432 35.17 308.082 37.39 307.422 40.27ZM379.607 39.01V22H391.217V67H379.607V49.9H361.697V67H350.087V22H361.697V39.01H379.607ZM413.195 47.56L434.345 22H442.985V67H431.645V41.44L410.495 67H401.855V22H413.195V47.56ZM468.653 22H489.713V67H478.373V52.96H474.323L463.973 67H450.563L461.813 51.61C458.933 50.41 456.623 48.52 454.883 45.94C453.203 43.36 452.363 40.54 452.363 37.48C452.363 33.34 453.863 29.71 456.863 26.59C459.803 23.53 463.733 22 468.653 22ZM478.373 32.35H469.553C467.873 32.35 466.463 32.86 465.323 33.88C464.243 34.9 463.703 36.22 463.703 37.84C463.703 39.46 464.243 40.75 465.323 41.71C466.463 42.67 467.873 43.15 469.553 43.15H478.373V32.35Z" fill="#F4B970" fill-opacity="0.15"/>
</g>
<defs>
<filter id="filter0_f_20_86" x="0.969971" y="0.73999" width="508.742" height="98.32" filterUnits="userSpaceOnUse" color-interpolation-filters="sRGB">
<feFlood flood-opacity="0" result="BackgroundImageFix"/>
<feBlend mode="normal" in="SourceGraphic" in2="BackgroundImageFix" result="shape"/>
<feGaussianBlur stdDeviation="10" result="effect1_foregroundBlur_20_86"/>
</filter>
</defs>
</svg>
